<?xml version="1.0" encoding="UTF-8"?>

<svg xmlns="http://www.w3.org/2000/svg" xmlns:xlink="http://www.w3.org/1999/xlink" width="100%" height="auto" viewBox="0 0 2200 802">



<symbol id="vecto" viewBox="0 0 2200 802" width="100%" height="auto">

  <g id="text">

    <path id="textvecto" data-name="Color Fill 3" d="M170,802h0c-.292-.292-.458-.432-.557-.516-.144-.122-.144-.122-.161-.271A6.519,6.519,0,0,0,169,800h-1v-3h-1v-2h-1v-2h-1v-2h-1v-2h-1v-3h-1v-2h-1l-.842-2.527L159,778h-1v-3h-1v-2h-1l-.407-1.629-.162-.647q-.216-.862-.431-1.725h-1v-3h-1v-2h-1l-.842-2.527L150,758h-1v-3h-1v-2h-1q-1-3-2-6h-1v-3h-1v-2h-1l-1-3-1-3h-1v-3h-1v-2h-1l-1.111-3.333-.381-1.143L135,725h-1v-3h-1v-2h-1l-1.4-4.2L130,714h-1v-3h-1v-2h-1l-.824-2.471L125,703h-1l-1.429-4.286L121,694h-1v-2h-1v-3h-1v-2h-1l-.8-2.4L115,681h-1l-1.5-4.5L111,672h-1v-2h-1v-3h-1v-2h-1l-.478-1.913-.261-1.044L106,661h-1v-3h-1v-2h-1q-1-3-2-6h-1l-3-9H96v-2H95v-3H94v-2H93q-1-3-2-6H90v-3H89v-2H88l-2-6H85v-3H84v-2H83q-1-3-2-6H80v-3H79v-2H78l-.958-2.872-.273-.821L76,595H75v-3H74v-2H73l-.7-2.1-.262-.785-.173-.52L71,584H70l-1.429-4.286L67,575H66v-2H65v-3H64v-2H63l-.572-1.715L61,562H60v-3H59v-2H58l-.077-.307-.185-.738Q57.37,554.478,57,553H56v-3H55v-2H54l-.572-1.715L52,542H51l-1.5-4.5L48,533H47v-2H46l-.422-2.11L45.5,528.5,45,526H44l-.333-1q-.834-2.5-1.666-5H41v-3H40v-2H39q-1-3-2-6H36v-3H35v-2H34l-.91-2.728L32,498H31v-3H30v-2H29l-.927-2.78-.154-.463-.345-1.034L27,487H26v-3H25v-2H24l-1.091-3.273-.182-.546L22,476H21v-3H20v-2H19l-.333-1q-.834-2.5-1.666-5H16v-3H15v-2H14l-.37-1.479-.142-.569-.15-.6L13,456H12v-3H11v-2H10l-1-3-2-6H6v-2H5l-2.884-7.931L1,429H54l1.113,2.669L59,441h1v2h1l.2,1,.178.889q.311,1.556.622,3.112h1l.889,2.666L65,454h1v3h1v2h1l.5,2q.25,1,.5,2h1v3h1v2h1l1,3,1,3h1v3h1v2h1l1.091,3.273.182.546L79,485h1v3h1v2h1q.248.992.5,1.983l.057.229L83,494h1v3h1v2h1l1.091,3.273.182.546L88,505h1v3h1v2h1q.25,1,.5,2l.3,1.2.2.8h1v3h1v2h1l2,6h1l1.4,4.2L101,534h1v2h1v3h1v2h1v2h1v2h1v3h1v2h1l.251.752L111,556h1v3h1v2h1q1,3,2,6h1v3h1v2h1v2h1v2h1v3h1v2h1q.718,2.155,1.436,4.31l.23.69.333,1h1v3h1v2h1l1,3,1,3h1v3h1l.2.8.2.8q.3,1.2.6,2.4h1v2h1v3h1l.667,2L138,616h1v2h1l1.5,4.5L143,627h1v2h1v3h1v2h1v2h1v2h1v3h1v2h1q1,3,2,6h1q.25,1.25.5,2.5l.25,1.25L155,654h1l2,6h1v3h1v2h1v2h1v2h1v3h1v2h1q1.143,3.142,2.286,6.285L169,685c.288-.288.455-.43.555-.515.146-.124.146-.124.164-.273A6.552,6.552,0,0,1,170,683h1l.407-1.629q.3-1.185.592-2.371h1v-2h1v-2h1v-3h1v-2h1l.832-2.5.834-2.5.333-1h1v-3h1v-2h1v-2h1v-2h1v-3h1v-2h1l.832-2.5.834-2.5.333-1h1v-3h1v-2h1l.67-2.681.13-.519.2-.8h1v-3h1v-2h1l2-6h1v-3h1v-2h1q1-3,2-6h1v-3h1v-2h1l.167-.667.2-.794q.317-1.27.635-2.54h1v-3h1v-2h1l2-6h1v-3h1v-2h1q1-3,2-6h1v-3h1v-2h1q.5-2,1-4h1v-3h1v-2h1l.727-2.182L225,562h1v-3h1v-2h1q1-3,2-6h1v-3h1v-2h1l.553-2.211.149-.6L234,542h1v-3h1v-2h1q1-3,2-6h1v-3h1v-2h1l1-3,1-3h1v-3h1v-2h1v-2h1v-2h1v-3h1v-2h1l1-3,1-3h1v-3h1v-2h1l.8-2.4L258,489h1v-3h1v-2h1q.18-.722.361-1.445L261.5,482l.167-.667L262,480h1v-3h1v-2h1l.6-1.8.7-2.1.7-2.1h1v-3h1v-2h1l.555-2.223L271,460h1l.555-2.778L273,455h1l.728-2.182L276,449h1v-3h1l1-3,1-3h1v-2h1v-3c.238-.522,3.742-5.87,4-6h52l-.222,1.11q-.388,1.945-.778,3.889h-1v3h-1v2h-1l-2,6-1,3h-1v2h-1l-.249.75L327,456h-1v3h-1v2h-1l-.448,1.79q-.276,1.105-.552,2.211h-1v3h-1v2h-1l-.727,2.182L318,476h-1l-1.5,4.5L314,485h-1v2h-1q-.5,2.5-1,5h-1l-2,6h-1v3h-1v2h-1q-1,3-2,6h-1v3h-1v2h-1l-.4,1.2L298,520h-1v3h-1v2h-1q-1,3-2,6h-1l-1.6,4.8L289,540h-1v2h-1q-.193.966-.386,1.932l-.114.568-.167.833L286,547h-1l-2,6h-1v3h-1v2h-1l-.478,1.913-.19.759L279,562h-1v3h-1v2h-1l-1.188,3.564-.085.255L274,573h-1l-1.5,4.5L270,582h-1v2h-1v3h-1v2h-1l-.249.75L264,595h-1v3h-1v2h-1q-1,3-2,6h-1v3h-1v2h-1l-1.142,3.429L254,617h-1v3h-1v2h-1q-1,3-2,6h-1v3h-1v2h-1q-1,3-2,6h-1l-2.5,7.5L240,648h-1v2h-1v3h-1v2h-1l-2,6h-1v3h-1v2h-1v2h-1v2h-1v3h-1v2h-1l-1,3-1,3h-1q-.333,1.661-.665,3.323l-.018.092L223,686h-1l-1.188,3.564-.085.255L220,692h-1v3h-1v2h-1l-.778,2.333L216,700l-1,3h-1v3h-1v2h-1q-1,3-2,6h-1v3h-1v2h-1q-1,3-2,6h-1v3h-1v2h-1l-1,3-1,3h-1v3h-1v2h-1q-1,3-2,6h-1v3h-1v2h-1q-1,3-2,6h-1v3h-1v2h-1q-.433,1.727-.864,3.455L186,767h-1v3h-1v2h-1q-1,3-2,6h-1v3h-1v2h-1q-1,3-2,6h-1v3h-1v2c-.424.817-.9,1.577-1.37,2.311A17.306,17.306,0,0,0,170,802Zm1522.006-4.376c-6.321,0-14.332-.873-17.006-1.624l-1.2-.067-3.332-.185L1657,795v-1h-5v-1h-5v-1h-5v-1h-4v-1l-10-2v-1h-3v-1h-2v-1l-2.411-.4-.658-.11L1617,784v-1h-2v-1h-3v-1l-6-2v-1h-2v-1h-2v-1h-2v-1h-2v-1h-2v-1h-2v-1h-2l-.637-1.273L1591,770l-2.286-.572L1587,769v-1l-.214-.071L1584,767l-.273-.545L1583,765h-2l-.062-.125q-.468-.938-.937-1.875h-2l-.791-1.187-.132-.2L1576,760h-2l-2-3h-2l-1.629-2.171L1567,753h-2l-3.035-3.469-.276-.315-3.443-3.935L1558,745h-2l-1.714-2.143L1552,740l-.909-.454L1550,739v-2l-2.4-2.1L1542,730v-2l-5-4q-.5-1.5-1-3l-1-.5-1-.5v-2l-2-1-.476-1.429-.315-.943L1531,714h-1v-2l-1.385-.692L1528,711v-2l-1.429-.715L1526,708v-2l-.715-.357L1524,705l-.889-2.666q-.555-1.667-1.111-3.333l-1.455-.727L1520,698q-.285-1.143-.571-2.286L1519,694h-1l-1-3-1-3h-1v-3h-1l-.484-1.935-.188-.751L1513,681h-1v-3h-1v-2h-1l-.5-3q-.25-1.5-.5-3h-1v-2h-1v-4h-1v-3h-1v-3h-1v-4c-4.093-12.225-6-26.842-6-46V590h1q.457-6.841.912-13.683L1500,575h1v-5h1v-5h1v-4h1v-4h1v-3h1v-3h1v-4h1v-2h1l.425-2.545.064-.386L1510,539h1v-2h1v-3h1q.221-.886.443-1.774l.04-.161L1514,530h1v-3h1v0l2-6h1l.407-1.629q.3-1.185.593-2.371l.461-.23L1522,516q.556-1.666,1.111-3.333l.222-.666.667-2,2-1v-2l.727-.363.424-.212L1528,506v-2l.705-.353L1530,503v-2l.572-.286L1532,500v-2l2-1v-2l2.462-1.846L1538,492v-2l1.828-1.371L1542,487v-2l3.833-3.407L1551,477v-2l.69-.46,2.063-1.374L1554,473q.5-1,1-2h2l4.593-5.167L1565,462h2l1.512-2.016.116-.155L1570,458l1.4-.467L1573,457l.214-.429q.393-.786.786-1.571h2l1.064-1.6.312-.468L1578,452h2q.5-1,1-2h2l.818-1.637L1584,448l3.448-.862L1588,447l.825-1.651.075-.15.1-.2,4-1,.307-.615.173-.346L1594,442h2v-1h2v-1h2v-1h2v-1h2v-1h2v-1l6-2v-1h3v-1h2v-1l3.307-.551L1623,430v-1h2v-1h3v-1h4v-1h3v-1l4.4-.628L1642,424v-1h5v-1l4.1-.41.821-.082,4.613-.462L1657,421v-1a25.9,25.9,0,0,1,6.521-.557c.6,0,1.217,0,1.816.009h.111c.564,0,1.267.01,1.924.01,3.366,0,7.087-.113,8.627-1.463,1.389-.02,2.782-.029,4.141-.029a249.631,249.631,0,0,1,27.062,1.408,195.07,195.07,0,0,1,23.919,4.1A168.518,168.518,0,0,1,1772,439h2v1h2v1h2v1h2v1h2l.875,1.751L1783,445l1.555.389.444.111,2,.5v1l.5.166,2.5.834.363.727L1791,450h2l.615,1.231L1794,452h2q1,1.5,2,3h2l.828,1.242L1802,458h2l2.669,3.558L1807,462h2q3.5,4,7,8h2q2.5,3,5,6l.705.353L1825,477v2q4,3.5,8,7v2l2.095,1.572L1837,491v2l3,2v2l1.286.643L1842,498l.207.619.275.826L1843,501h1v2l.777.389.272.136L1846,504v2l2,1q.434,1.3.867,2.6l.133.4h1l1,3,1,3q1,.5,2,1,.347,1.392.7,2.784L1855,521h1v2h1l.251.752q.874,2.624,1.748,5.249h1v3h1l.2.8q.4,1.6.8,3.2h1q.285,1.714.571,3.428L1864,542h1v2h1l.751,3.751q.625,3.125,1.249,6.25a141.5,141.5,0,0,1,6.657,29.236,193.228,193.228,0,0,1,1.277,31.715c-.865,21.628-5.1,42.243-11.933,58.048l-.429,2.571q-.286,1.714-.571,3.428h-1q-.382,1.525-.762,3.049L1861,683h-1v3h-1l-.249.75L1857,692h-1v2h-1l-.333,1.333-.1.381q-.286,1.143-.571,2.287l-2,1-1,3-1,3h-1l-.066.2-.078.233q-.428,1.284-.856,2.569l-2,1-.409,1.636-.127.506L1845,713l-.546.364L1842,715v2l-.6.3-.56.28-.84.42v2l-.546.364L1837,722v2l-2.667,2L1833,727v2q-4,3.5-8,7v2l-5.9,5.06-.361.309L1818,744l-.272.545L1817,746h-2l-1.579,1.842-.2.234L1809,753h-2l-1.334,1.778L1804,757h-2l-1.13,1.7L1800,760h-2q-1,1.5-2,3h-2l-.3.6-.7,1.4-1.435.478L1790,766v1h-2l-.375.75L1787,769l-1.826.457L1783,770l-.182.363-.117.233-.7,1.4h-2v1h-2v1h-2v1h-2v1h-2v1h-2v1h-2v1l-6,2v1h-3v1h-2v1h-3v1h-2v1l-5.428.9-.571.1v1h-3v1l-7,1v1h-4v1l-4.342.482-.087.01L1723,793v1h-6v1l-16.63.924L1699,796v1A28.566,28.566,0,0,1,1692.006,797.624ZM1546,604a11.739,11.739,0,0,0,.449,6.434A15.158,15.158,0,0,1,1547,613v12h1v7h1v5h1v4h1v4h1v4h1l.147.882q.426,2.559.853,5.119h1v2h1v3h1v2h1v3h1l.91,2.728L1561,671h1l.2.8.2.8q.3,1.2.6,2.4l.769.384L1565,676l.5,2,.5,2,2,1,.391,1.565.13.522L1569,685l.636.318.637.319L1571,686v2l1.25.834L1574,690v2l.545.272L1576,693l.5,1.5.375,1.125L1577,696l3,2.5,3,2.5v2l3.5,3,3.5,3,1.429,2.143L1592,712h2l1.777,2.222.87,1.087L1598,717h2l1.043,1.391,1.565,2.087L1603,721h2l.715,1.429L1606,723l2.5.834.5.166v1h2l.363.727L1612,727l.287.1,1.152.385.78.26.78.26v1h2v1h2v1h2v1h2v1h2v1h2v1l6,2v1h3v1h2v1h3v1h3v1l2.943.421,1.235.176,2.823.4v1h4v1h5v1l5.935.424L1674,747c2.4.67,12.123,1.535,19.173,1.535A29.209,29.209,0,0,0,1700,748v-1h8v-1h6v-1h5v-1h4v-1h4v-1h3v-1h3v-1h3v-1h2v-1h3v-1l2.728-.91L1747,735v-1h2v-1h2v-1h2v-1l6-2,.643-1.286L1760,727h2l.692-1.385L1763,725h2v-1l3-1q.5-1,1-2h2l.384-.768.1-.192L1772,719l1.281-.427.285-.095.956-.319L1775,718l2.5-3,2.5-3h2l7-8,3-2v-2l2.727-2.182L1797,696v-2l1.3-.87L1800,692v-2l1.875-1.251L1803,688v-2l1.125-.562L1805,685v-2l.615-.308.346-.173L1807,682q1-3,2-6l.96-.48.416-.208L1811,675l.522-2.087L1812,671h1v0l2-6h1v-3h1v-2h1l.619-3.095L1819,655h1v-3h1v-3h1q.243-1.7.485-3.394.258-1.8.516-3.606h1l.5-5,.5-5h1q.292-5.562.586-11.126L1827,613h1V602h-1V590h-1v-7h-1v-5h-1v-4h-1v-4h-1v-4h-1l-.43-2.583L1820.5,563l-.5-3h-1v-2h-1v-3h-1v-2h-1v-3h-1l-1-3-1-3h-1l-.435-1.739-.087-.348L1811,540l-.005,0-.952-.476-.348-.174L1809,539q-1-3-2-6l-1.295-.647L1805,532v-2l-1-.5-.75-.375L1803,529v-2l-2.25-1.5-.75-.5v-2l-1.5-1-1.5-1v-2l-2.315-1.852L1792,515v-2l-3-2-7-8h-2l-2.5-3-2.5-3h-2l-.667-1L1771,494h-2q-.5-1-1-2l-3-1v-1h-2l-.3-.6-.7-1.4-1.334-.444-.667-.222-1-.333v-1l-6-2v-1h-2v-1h-2v-1h-2v-1l-6-2v-1h-3v-1h-2v-1h-3v-1h-3v-1l-3.678-.526L1723,472v-1h-4v-1h-5c-9.139-2.775-20.762-3-33.9-3H1674c-1.571,1.333-4.74,1.379-7.806,1.424A24.617,24.617,0,0,0,1660,469v1h-5v1h-4v1h-3v1l-1.891.27-.638.091L1641,474v1h-2v1l-2.644.44-.413.069-.421.07L1633,477v1l-2,.667L1627,480v1h-2v1h-2v1h-2v1h-2v1h-2l-.142.285L1616,487l-1.555.389-1.955.489L1612,488l-.625,1.249L1611,490h-2v1l-.571.19-.486.162L1606,492l-.142.285L1605,494h-2l-1.565,2.087L1600,498h-2l-.555.695-1.667,2.084L1594,503h-2l-1.579,1.842-.2.234L1586,510l-2.538,1.692L1583,512v2l-3,2.5-3,2.5v2l-1.5,1-1.5,1v2l-.886.591-.739.492L1571,527v2l-.615.307-.346.173L1569,530l-.522,2.087L1568,534l-2,1-.522,2.088L1565,539l-1.455.727L1563,540q-.421,1.679-.84,3.36l-.16.64h-1l-.345,1.385q-.327,1.308-.655,2.616h-1v3h-1l-.361,1.445-.139.556-.143.571L1557,555h-1q-.36,1.8-.72,3.6l-.058.292L1555,560h-1v3h-1v3h-1v4h-1v4h-1v4h-1v5h-1v7h-1v14ZM940,797h0v-1H929v-1h-7v-1h-6v-1h-5l-19.783-6.182-.581-.182L879,783v-1l-2.052-.513L875,781v-1h-2v-1h-3v-1l-1.385-.345L866,777v-1h-2l-.385-.769-.246-.492L863,774h-2v-1h-2v-1h-2v-1h-2v-1l-1.73-.578L852,769q-.407-.812-.812-1.625L851,767l-1.3-.326-1.3-.326L847,766l-.143-.214-.546-.819L845,763h-2l-.539-1.077L842,761h-2l-.5-1-.143-.286L839,759l-.562-.187L836,758l-1.071-1.428-1.227-1.637L833,754h-2l-2.211-2.654L826,748h-2l-3.644-4.1L816,739l-1.691-1.353-1.087-.87L811,735v-2l-1.862-1.551L805,728v-2l-2.667-2L801,723v-2l-1.04-.693-.4-.267-.39-.26L798,719v-2l-1.672-.836-.128-.064-.2-.1-.066-.2-.17-.509q-.381-1.146-.764-2.292h-1v-2l-.833-.416-.233-.117L792,710l-.409-1.227-.091-.273-.375-1.125L791,707h-1l-.334-1.335-.5-2L789,703l-1-.5-1-.5v-2h-1v-2h-1v-2h-1v-2h-1v-2h-1v-2h-1v-2h-1l-1-3-1-3h-1v-3h-1v-2h-1v-3h-1v-3h-1v-3h-1v-3h-1v-3h-1v-3h-1v-4h-1v-4h-1v-4h-1v-5h-1l-.427-5.977L764.5,635l-.412-5.765L764,628h-1q-.461-12.877-.92-25.755L762,600h1l.4-8.4q.3-6.3.6-12.6h1v-6h1v-5h1v-4h1v-4h1v-4h1v-3h1v-3h1v-3h1v-3h1l.429-2.571q.286-1.714.571-3.428h1v-2h1v-3h1l1-3,1-3h1v-2h1v-2h1v-2h1v-2h1v-2h1v-2h1v-2l.834-.417L789,512l.136-.545.123-.493q.37-1.481.741-2.962l.571-.285L792,507v-2l1.286-.643L794,504v-2l1.286-.643.429-.214L796,501v-2l.167-.083L798,498v-2l1.2-.8L801,494v-2l2.25-1.5L804,490q.5-1.5,1-3l3.569-2.974,1.02-.849L811,482v-2l2.657-2.125.121-.1L816,476l2.666-3L820,471.5l4-4.5h2l1.37-1.645,1.371-1.645L831,461h2l1.565-2.087L836,457l3-1,.5-1,.5-1h2l.437-.875.45-.9L843,452l1.773-.591L846,451v-1h2l.692-1.385L849,448h2l.083-.167q.458-.917.917-1.833h2l.47-.941L855,444h2v-1h2v-1h2v-1h2l.692-1.385L864,439h2v-1l4-1v-1h3v-1l.666-.166.317-.079L877,434v-1h3v-1h2v-1h3v-1h2v-1l7.446-2.054,5.595-1.543L916,421h6v-1h7v-1a9.416,9.416,0,0,1,2.589-.312c.869,0,1.769.075,2.564.14l.063.005c.841.07,1.636.135,2.4.135A4.857,4.857,0,0,0,940,418c1.911-.04,3.83-.059,5.7-.059,38.879,0,71.95,8.431,98.3,25.06l.5.167L1050,445q.5,1,1,2h2l.125.249L1054,449h2v1l1.5.5,1.5.5q.5,1,1,2h2l1,1.5.25.375L1064,456h2l2,3h2l1.071,1.428,1.227,1.637.7.935,1.05.35.45.15,1.5.5,2.693,3.23L1081,470a25.779,25.779,0,0,0,2.375,2.024c1.988,1.558,3.864,3.029,4.625,5.976l-13.74,13.19L1063,502a35.118,35.118,0,0,0-2.528,2.947c-2.01,2.523-4.087,5.131-7.472,6.053l-3.145-3.431L1042,499h-2l-2.055-2.74-.076-.1L1037,495h-2l-.593-1.187-.1-.2L1034,493h-2l-1.2-1.8-.8-1.2-.571-.143-.18-.045L1026,489l-.307-.615-.173-.346L1025,487l-1-.25-1-.25-.571-.143L1021,486q-.5-1-1-2l-4-1v-1h-2v-1l-6-2v-1h-3v-1h-2v-1h-3v-1h-3v-1h-3v-1h-3v-1h-4v-1h-4v-1h-4v-1h-6v-1h-9a50.884,50.884,0,0,0-12.872-1.33c-7.424,0-15.513.936-20.128,2.329h-6v1h-5v1h-4v1h-4a205.434,205.434,0,0,0-21.38,8.995,153.915,153.915,0,0,0-19.035,11.08,126.686,126.686,0,0,0-16.577,13.543A118.127,118.127,0,0,0,841,522l-.462.308L838,524v2l-1.875,1.251L835,528v2l-1.5.75-.5.25q-.257,1.024-.513,2.048L832,535l-.419.21-.628.314L830,536v2h-1v2h-1v2h-1v2h-1v2h-1v2h-1l-.285.857L822,554h-1l-.429,2.571q-.286,1.714-.571,3.428h-1v2h-1q-.236,1.656-.473,3.311-.264,1.845-.527,3.689h-1v4a91.267,91.267,0,0,0-3.605,16.175,136.752,136.752,0,0,0-1.237,18.348c-.024,13.062,1.7,25.306,4.842,34.477l.075.6.142,1.138q.391,3.13.783,6.259h1v3h1v2h1v3h1v3h1l.4,1.2q.8,2.4,1.6,4.8h1v2h1v2h1v2h1l.715,2.143L829,676l.125.375L830,679l.762.381.31.155L832,680l.256,1.024.256,1.024.15.6L833,684l.714.357L835,685v2l2.25,1.5.75.5v2l.772.514,1.546,1.031L841,693v2l1.394,1.045,1.673,1.255.933.7v2l2.5,2,2.5,2,9,10h2l2.125,2.657.1.121L865,719l1.3.435L868,720l.421.842L869,722h2q.5,1,1,2l.886.3.507.169.322.107L875,725v1l1.714.428L879,727l.312.624.086.172q.3.6.6,1.2l1.913.478.759.19L884,730l.637,1.273L885,732l3.857,1.286L894,735v1l1.445.361.556.139.667.167L898,737v1h3v1h2v1h3v1h3a98.168,98.168,0,0,0,18.84,5.169A129.97,129.97,0,0,0,950,748h15l12.987-2.258L988,744v-1l5.128-1.026,1.539-.308L998,741v-1h2v-1h3v-1h2v-1h3v-1l1.637-.546L1014,734v-1h2v-1l6-2,.584-1.167.083-.167L1023,728l1.529-.382.47-.117,1.429-.357L1027,727v-1l3-1q.5-1,1-2h2l2-3h2l.308-.462L1039,717l2.43-.81L1042,716l5-6,2.5-1.5,2.5-1.5v1l11.516,10.838,4.126,3.883L1086,740a2.377,2.377,0,0,0-.394.6c-.033,0-.155.054-.607.4-3.169,5.368-9.273,9.615-14.658,13.361l-.029.02c-.8.56-1.565,1.089-2.312,1.619l-1.429,2.142L1066,759h-2l-.958,1.438-.149.224L1062,762h-2q-.5,1-1,2h-2q-.5,1-1,2h-2l-.818,1.637L1053,768h-2l-1,2-4,1-.412.823-.2.392L1045,773l-3.257,1.086L1039,775v1h-2v1h-2v1l-3.6,1.2-2.4.8v1h-3v1h-2v1h-3v1h-2v1l-4.629.772L1013,786v1h-3v1h-3v1h-3v1h-4v1h-4v1h-4v1h-5v1h-5v1h-8v1l-15.417.454-.5.015L940,797ZM675.008,786.3c-2.283,0-4.633-.079-6.906-.155h-.031c-2.154-.072-4.189-.141-6.071-.141H441V429H685c1.208,3.287,1.118,8.73,1.039,13.532-.02,1.215-.039,2.361-.039,3.468v32H490V578H639c1.208,3.287,1.118,8.731,1.039,13.534v.038c-.02,1.2-.038,2.335-.038,3.428v32H490V737H686v48C683.567,785.885,680.074,786.3,675.008,786.3ZM1327,786h-48V478H1148V430c2.846-1.036,6.817-1.518,12.5-1.518,3.1,0,6.316.139,9.425.274,2.892.125,5.623.244,8.077.244h279c1.208,3.288,1.118,8.733,1.039,13.536v.037c-.02,1.2-.038,2.334-.038,3.427v32H1327V786ZM249.175,194.641c-5.13,0-10.611-.2-15.447-.372h-.009c-3.648-.132-7.094-.256-9.719-.268q-.287-32.6-.572-65.2l-.181-20.681L223,80h-1v2c-1.37.953-1.374,1.056-1.388,1.4A3.011,3.011,0,0,1,220,85h-1v2l-.615.307-.346.173L217,88v2h-1v2l-1.4.7-.6.3v2h-1v2h-1v2l-.615.308-.346.173L210,100l-.19.761q-.4,1.619-.81,3.239l-.769.384L207,105v2h-1v2l-1.25.625L204,110l-.5,2-.5,2-.615.307-.346.173L201,115v2h-1v2l-.857.429L198,120l-.445,1.778L197,124l-1.4.7-.6.3q-.251,1-.5,2l-.5,2-2,1-.174.7q-.413,1.653-.826,3.3l-1.035.517-.193.1L189,135v2h-1v2l-.818.409-.2.1L186,140l-2,6-2,1-.5,2-.045.182L181,151l-1.231.615L179,152q-.345,1.379-.69,2.759L178,156l-1.539.77L176,157l-.442,1.765-.152.61L175,161l-.823.412L173,162l-.363,1.451-.121.484L172,166l-.842.421L170,167v2h-1v2h-1v1h-1v1H146a18.757,18.757,0,0,0-3-7l-.125-.062L141,165q-.5-2-1-4l-.236-.117-.706-.353L138,160l-.375-1.5-.125-.5-.5-2-2-1v-2h-1v-2l-1.277-.639-.1-.049L132,150l-.5-2-.5-2-.727-.363L129,145l-.478-1.913L128,141h-1l-.529-1.589L126,138l-.167-.083L124,137v-2h-1v-2l-2-1q-.5-2-1-4l-.727-.363L118,127l-.478-1.913L117,123l-1.167-.584L115,122v-2h-1v-2h-1l-.071-.214q-.464-1.393-.928-2.785l-2-1v-2h-1v-2l-1.1-.55L107,109l-.579-2.315L106,105l-1.778-.889L104,104l-.048-.19Q103.476,101.9,103,100l-.769-.384L101,99V97h-1V95l-1-.5L98,94V92l-1.751-.875L96,91V89a19.057,19.057,0,0,0-1.5-2.155l0,0A11.419,11.419,0,0,1,92,82H91V193c-3,1.1-8.5,1.641-16.824,1.641-5.135,0-10.617-.2-15.454-.372h-.006c-3.65-.132-7.1-.256-9.717-.268-1.364-3.747-1.212-9.919-1.078-15.365C47.962,177,48,175.455,48,174V1H86l.5,1.5L87,4l1.063.532.118.059L89,5l.6,2.4L90,9l1.231.615L92,10l.444,1.778L93,14l.154.077.142.071L95,15l.485,1.939L96,19l.249.125L98,20q.276,1.106.552,2.211l.2.813L99,24l.47.235L101,25l.478,1.913L102,29l1.019.509.255.127L104,30v2l.222.111L106,33v2h1v2l.9.45.22.11L109,38q.25,1,.5,2l.214.857L110,42l.47.235L112,43v2h1v2l2,1q.222.889.445,1.778L116,52l.25.125.75.375,1,.5.516,2.065L119,57l1.539.77L121,58q.417,1.668.833,3.335L122,62l.524.262.524.262L124,63l.409,1.636.118.473L125,67l1.063.532.118.059L127,68l.464,1.857L127.5,70l.3,1.2.2.8,1.231.615L130,73q.358,1.428.714,2.857l.238.953L131,77l.223.111L133,78v2h1v2l.545.272L136,83q.25,1,.5,2l.214.857L137,87l.47.235L139,88l.256,1.024.256,1.024.15.6L140,92l2,1q.222.889.445,1.778L143,97l.769.384L145,98l.516,2.065L146,102l1.539.77L148,103l.441,1.765L149,107l.823.412.392.2L151,108l.409,1.636.118.473L152,112l1.158.579L154,113v2h1v2h1q.5,1.5,1,3c.289-.289.457-.431.557-.516.145-.123.145-.123.163-.272A6.531,6.531,0,0,1,158,118c1.37-.952,1.374-1.055,1.388-1.4A3.006,3.006,0,0,1,160,115h1v-2l1.158-.579L163,112l.5-2q.25-1,.5-2l.941-.471.235-.118L166,107l.559-2.235L167,103l.461-.23L169,102l.31-1.241.063-.251q.313-1.254.627-2.508l.769-.385.492-.246L172,97q1-3,2-6l1.059-.529.353-.176L176,90l.238-.952q.381-1.524.762-3.048l1.181-.591L179,85l.591-2.363L180,81l.858-.429.107-.054L182,80q.5-2,1-4l2-1,.059-.235.055-.221q.443-1.772.886-3.544l.6-.3L188,70q1-3,2-6l1.154-.577.231-.115L192,63V61h1V59l1.067-.534L195,58l.136-.545.216-.863q.324-1.3.648-2.591l.777-.389.445-.222L198,53l.433-1.733q.284-1.134.567-2.267,1-.5,2-1,.5-2,1-4l.706-.353.235-.118L204,43V41h1V39l.6-.3L207,38q1-3,2-6l.842-.421L211,31q.433-1.727.864-3.455L212,27l1.048-.524L214,26l.318-1.272L215,22l2-1,.363-1.451.121-.484L218,17l1.231-.615L220,16q.5-2,1-4l2-1V9h1V7h1V5l.842-.421L227,4l.25-.75.25-.75.167-.5L228,1h37q.456,87.468.911,174.954L266,193C263,194.1,257.5,194.641,249.175,194.641Zm1235.076-.2c-3.349,0-6.806-.115-10.149-.227h-.025c-3.213-.107-6.247-.209-9.078-.209h-68c-1.364-3.747-1.212-9.919-1.078-15.365.04-1.636.078-3.18.078-4.636V1h72c3.438,0,7.056-.055,10.554-.107,3.63-.055,7.384-.111,11.063-.111,10.2,0,21.783.382,30.383,3.218h4V5l3.3.733L1533,7V8l3.063,1.021.18.06L1539,10v1h2v1l3,1,.1.2.112.225L1545,15h2l1.692,2.538L1549,18l3.41,2.841L1555,23v2l.615.307.346.173L1557,26l.375,1.125.125.375.5,1.5h1l.422,2.11.078.391q.25,1.25.5,2.5h1v3h1v3h1v7h1v7h-1v8h-1v3h-1v3h-1v3h-1v2h-1v2h-1l-.4,1.2L1556,78l-2,1v2l-3,2c-.693.705-1.357,1.442-2,2.154l0,.005c-2.7,3-5.258,5.826-9.995,6.841v2a26.374,26.374,0,0,1,10,3l.353.705L1550,99h2l.381.762L1553,101h2l1.043,1.392.456.609,1.5,2,7,6v2l.769.384L1567,114v2h1l.435,1.739.087.348L1569,120h1v3h1v4h1v4h1c.745,2.519.507,7.368.3,10.034A56.21,56.21,0,0,1,1572,150v5h-1l-.125.749q-.437,2.625-.875,5.251h-1l-.522,2.087L1568,165l-2,1v2q-1,.5-2,1v2l-2.657,2.125-.121.1L1559,175l-1.077,1.616L1557,178h-2q-.5,1-1,2l-1.4.467L1551,181v1l-2.015.5-1.345.336-.64.16v1l-3,1-3,1v1h-3v1h-3v1h-4v1h-4v1h-5v1l-18.9.822-2.861.124L1499,193C1495.467,193.981,1490.781,194.438,1484.251,194.438ZM1441,112v47h47l11.721-.51,5.746-.25L1511,158v-1h3v-1l6-2,1.466-1.954.163-.217L1523,150l1.231-.616L1525,149a3.616,3.616,0,0,0,.645-1.7A3.26,3.26,0,0,1,1527,145c.08-1.1.238-2.358.405-3.691.634-5.059,1.424-11.356-1.4-14.309a12.839,12.839,0,0,0-2.733-5.184,20.14,20.14,0,0,0-4.649-3.911A46.449,46.449,0,0,0,1507,113h-10v-1Zm0-77V79h41c1.128,0,2.342.01,3.414.019h.042c1.154.01,2.347.02,3.525.02,5.9,0,11.93-.247,16.02-2.039l3-2,6-4a14.505,14.505,0,0,0,1.572-3.052A9.95,9.95,0,0,1,1518,64V50h-1l-1-3-1-3a47.859,47.859,0,0,1-4.55-3.08A31.6,31.6,0,0,0,1502,36l-4.973-.237L1491.5,35.5l-.256-.012L1481,35ZM752.266,194.317c-2.832,0-5.759-.084-8.341-.158h-.007l-.133,0c-2.731-.079-5.311-.154-7.743-.154H676V1h76c2.035,0,4.166-.02,6.226-.04,2.121-.02,4.312-.042,6.466-.042C772.6.918,780.774,1.17,787,3h6c10.123,3.14,21.85,7.128,32.08,12.9a77.585,77.585,0,0,1,12.979,9.071A69.339,69.339,0,0,1,849,37l2,1.5,2,1.5v2l.571.285L855,43v2l1,.5,1,.5q1,3,2,6h1q1,3,2,6h1v3h1v3h1v3h1v3h1v4h1q.2,2.935.392,5.87L868.5,81.5l.156,2.333q.172,2.583.345,5.167h1v16h-1q-.249,3.72-.5,7.442-.252,3.779-.5,7.558h-1v4h-1v3h-1v3h-1v3h-1v3h-1q-1,3-2,6h-1v2h-1q-.187.749-.375,1.5l-.125.5-.167.667L857,148h-1l-.6,1.8L855,151l-1.334.667L853,152v2l-2,1.5-2,1.5v2l-8,7-.221.332-.222.333L839,169h-2l-1.451,1.935L834,173h-2l-.312.625L831,175h-2l-.486.973-.1.195L828,177l-3,1v1l-2,.5-.286.071L821,180v1l-1.637.546L815,183v1h-3v1h-2v1h-3v1h-3v1h-3v1h-4v1h-4v1h-5v1l-12.52.57-7.512.341L766,193C762.783,193.9,758.419,194.317,752.266,194.317ZM721,38V156h54v-1h5v-1h4v-1l2.943-.49,2.62-.437L790,152v-1l2-.667L796,149v-1h2v-1l3-1,.273-.545L802,144h2l2.273-2.727.455-.545L809,138l2.571-1.929L813,135v-2l1.385-.693L815,132v-2l2-1v-2h1l.478-1.913.19-.759L819,123h1v-3h1v-3h1v-3h1c.464-1.434,1.013-7.16,1.3-13.614.326-7.241.212-12.619-.3-14.386h-1V81h-1V77h-1l-.412-2.47L820,71h-1l-.433-1.733-.175-.7q-.2-.785-.392-1.57h-1V65a53.711,53.711,0,0,0-6.945-8.79,57.524,57.524,0,0,0-8.562-7.179,69.15,69.15,0,0,0-10.059-5.694A89.662,89.662,0,0,0,780,39l-2.331-.111-4.4-.209L759,38ZM1772,194h-44c-1.543-4.216-1.321-11.151-1.126-17.27.065-2.031.126-3.949.126-5.73V123c-1.372-.95-1.376-1.055-1.39-1.4A3,3,0,0,0,1725,120h-1v-2l-.615-.307-.346-.173L1722,117v-2h-1v-2l-.857-.429L1719,112l-.409-1.636-.118-.473L1718,108l-.762-.381-.191-.1L1716,107l-.136-.545q-.431-1.727-.864-3.455l-.615-.307-.346-.173L1713,102l-.478-1.913L1712,98l-1.04-.52L1710,97q-.222-.889-.445-1.778L1709,93l-.728-.363L1707,92l-.138-.551-.069-.276q-.4-1.586-.793-3.173-1-.5-2-1V85h-1V83l-.753-.377-.377-.189L1701,82l-.368-1.473-.421-1.685L1700,78l-1.231-.616L1698,77q-.405-1.62-.81-3.239L1697,73l-.334-.166L1696,72.5l-.75-.375L1695,72l-.5-2-.5-2-.857-.429L1692,67l-.409-1.636-.118-.473L1691,63l-.588-.294-.589-.295L1689,62q-.5-2-1-4l-.5-.25L1686,57l-.478-1.913L1685,53l-1.04-.52L1683,52q-.222-.889-.445-1.778L1682,48l-.533-.266L1680,47V45h-1V43h-1q-.5-1.5-1-3l-2-1V37h-1V35l-1.385-.692L1672,34q-.5-2-1-4l-.2-.1-.225-.112L1669,29V27h-1V25l-2-1-.391-1.566-.056-.224L1665,20l-1.093-.546-.545-.273L1663,19q-.5-2-1-4l-1.251-.625-.25-.125L1660,14q-.5-2-1-4l-.334-.167L1658,9.5l-1-.5-.4-1.6-.2-.8L1656,5l-.737-.369-.21-.105L1654,4q-.5-1.5-1-3h48l.565,1.7L1702,4h1V6l.632.315L1705,7q.356,1.421.711,2.843l.129.517.16.64,2,1q.5,2,1,4l.714.357L1711,17l.441,1.766.13.52L1712,21l1.539.77L1714,22v2h1v2l1,.5.75.375L1717,27l.136.545q.431,1.727.864,3.455l1.222.611L1720,32v2h1v2l1.231.615L1723,37q.358,1.428.714,2.857l.238.953L1724,41l.25.125.292.146L1726,42l.16.64q.419,1.68.84,3.36l.857.429.326.163L1729,47q.251,1.007.5,2.014l.034.134L1730,51l.47.235L1732,52q.356,1.421.711,2.843l.129.517.16.64,2,1q.5,2,1,4l.546.273.41.2.209.1L1738,62l.441,1.766.13.52L1739,66l1.539.77L1741,67v2l.125.062L1743,70l.516,2.06.132.529L1744,74l2,1,.555,2.222L1747,79l.8.4.533.267L1749,80v2h1a2.987,2.987,0,0,1,.658,1.905c-.016.42-.016.42,1.968.987L1753,85l.4-1.583.1-.417.167-.667L1754,81l.788-.394.175-.088L1756,80l.125-.5.375-1.5q.25-1,.5-2l2-1q.421-1.679.84-3.36L1760,71l1-.5.286-.143L1762,70l.25-1,.25-1,.167-.667L1763,66l2-1,.245-.979.327-1.306L1766,61l1.539-.77L1768,60q.5-2,1-4l1.125-.562L1771,55l.478-1.913.19-.759L1772,51l1.833-.917L1774,50l.295-1.18.3-1.179L1775,46l1.231-.615L1777,45q.385-1.538.769-3.077l.064-.256L1778,41l.25-.125L1779,40.5l.667-.333L1780,40l.291-1.166L1780.5,38l.167-.667L1781,36l.777-.389.445-.222L1783,35V33h1V31l2-1q.421-1.679.84-3.36L1787,26l1-.5.286-.143L1789,25V23h1V21l.6-.3,1.4-.7.245-.979.327-1.306L1793,16l1.539-.77L1795,15l.423-1.693.193-.769L1796,11l.705-.353L1798,10V8a18.94,18.94,0,0,1,1.51-2.166A11.422,11.422,0,0,0,1802,1h45V2c-1.853,1.629-2.828,3.728-3.861,5.95A30.517,30.517,0,0,1,1841,12q-1,.5-2,1l-.283,1.134-.283,1.133L1838,17l-1.035.517-.193.1L1836,18l-.409,1.636-.127.506L1835,22l-.842.421L1833,23q-.385,1.538-.769,3.077l-.064.256L1832,27l-1,.5-.286.143L1830,28l-.444,1.778L1829,32l-2,1-.421,1.684L1826,37l-1.091.546L1824,38q-.5,2-1,4l-2,1v2h-1v2l-.857.429L1818,48l-.445,1.778L1817,52l-1.231.615L1815,53v2h-1v2l-2,1-.283,1.134-.283,1.133L1811,62l-1.035.517-.193.1L1809,63l-.409,1.636-.127.506L1808,67l-.842.421L1806,68q-.385,1.538-.769,3.077l-.064.256L1805,72l-1,.5-.286.143L1803,73l-.444,1.778L1802,77l-2,1-.421,1.684L1799,82l-1.091.546L1797,83q-.5,2-1,4l-2,1-.478,1.913-.19.759L1793,92l-.4.2-1.6.8-.445,1.778L1790,97l-1.231.615L1788,98l-.445,1.778L1787,102q-1,.5-2,1l-.283,1.134-.283,1.133L1784,107l-1.035.517-.193.1L1782,108l-.409,1.636-.127.506L1781,112l-1.067.534L1779,113l-.143.571-.045.18q-.406,1.624-.812,3.249l-.615.308-.346.173L1776,118l-.444,1.778L1775,122l-2,1v2h-1v69Zm-643,0H980V1h146V37H1025V78h89v35h-89v44h104v37Zm-550,0H532l-8.5-21L515,152H426q-.2.6-.4,1.2l-.1.3-.167.5L425,155h-1q-.193.966-.386,1.932l-.114.568-.167.833L423,160h-1v3h-1v2h-1v3h-1l-.413,1.651-.075.3L418,172h-1v3h-1v2h-1v3h-1l-.368,1.473q-.316,1.263-.632,2.526h-1v3h-1a14,14,0,0,0-.825,2.675c-.437,1.806-.889,3.674-2.175,4.325H363l1.931-5.311.555-1.527L367,183h1l1.6-4.8L371,174h1v-3h1l.77-2.308L375,165h1v-2h1v-3h1q.18-.722.361-1.445L378.5,158l.167-.667L379,156h1v-2h1v-3h1q.5-2,1-4h1v-2h1v-3h1q.285-1.143.571-2.286L387,138h1v-2h1v-3h1q.5-2,1-4h1v-2h1v-3h1v-2h1v-2h1v-2h1q.21-1.05.42-2.1l.124-.618q.228-1.141.456-2.282h1q.5-2,1-4h1v-3h1l.359-1.44q.32-1.28.641-2.561h1v-2h1V97h1l.5-2,.045-.182L407,93h1V91h1V88h1l.924-2.769L412,82h1V80h1V77h1l.434-1.738.109-.434L416,73h1V71h1V68h1V66h1V64h1V62h1V59h1l.555-2.223L424,55h1V53h1V50h1V48h1V46h1V44h1V41h1l.543-2.174.109-.435L432,37h1V35h1q.193-.966.386-1.932l.114-.568.167-.833L435,30h1q.257-1.024.513-2.048L437,26h1V23h1l.2-.8q.4-1.6.8-3.2h1V17h1V14h1V12h1l2.432-6.688L448,1h45l.154.462Q493.577,2.731,494,4h1V6h1l1.5,4.5L499,15h1v2h1v3h1v2h1q.283,1.134.567,2.267L504,26h1v3h1v2h1l.667,2.666L508,35h1v3h1v2h1l.136.546.123.494q.37,1.481.74,2.961h1v3h1v2h1l1,3,1,3h1v3h1v2h1l.421,1.684.193.772L521,64h1v3h1v2h1v2h1v2h1l1,5h1l.16.64q.419,1.68.84,3.36h1v3h1v2h1l.632,2.526L533,91h1v3h1v2h1l2,6h1v3h1v2h1l.632,2.526L542,111h1v3h1v2h1l.534,2.133.128.509q.169.679.34,1.357h1v3h1v2h1v2h1v2h1v3h1v2h1l1,3,1,3h1v3h1v2h1l.348,1.391L559,149h1v3h1v2h1v2h1v2h1l.138.689.064.319q.4,2,.8,3.992h1l.444,1.778L567,167h1v3h1v2h1l9,22ZM446,103l-2.5,7.5L441,118h60v-1a6.02,6.02,0,0,1-2.06-3.892A13.687,13.687,0,0,0,498,110h-1v-2h-1v-3h-1v-2h-1v-3h-1l-.5-2.015-.336-1.345L492,96h-1V93h-1V91h-1V88h-1q-.222-.889-.445-1.778L487,84h-1V81h-1V79h-1V76h-1V74h-1V71h-1q-.5-2-1-4h-1V64h-1V62h-1V59h-1q-.341-1.361-.68-2.721L475,55h-1l-1.333-4L471,46c-.288.288-.455.43-.555.515-.146.124-.146.124-.164.273A6.5,6.5,0,0,1,470,48a6,6,0,0,0-2.063,3.9A13.646,13.646,0,0,1,467,55h-1v2h-1v3h-1l-.413,1.651-.075.3L463,64h-1v3h-1l-.5,2.5q-.25,1.25-.5,2.5h-1l-.409,1.636-.127.506L458,76h-1v3h-1v2h-1v3h-1v2h-1v3h-1l-.516,2.064L451,93h-1v3h-1v2h-1v3h-1v2Z" fill="#000"></path>

   </g>

   <g id="hover">

    <path id="Color_Fill_2" data-name="Color Fill 2" d="M1940,184l6,2,1,2,6,2,1,2,6,2,1,2,4,1,1,2h2v1h2v1h2l1,2,6,2,1,2,6,2,1,2h2v1h2l1,2,6,2,1,2,6,2,1,2,6,2,1,2,4,1,1,2h2v1h2v1h2l1,2,6,2,1,2,6,2,1,2h2v1h2l1,2,6,2,1,2,6,2,1,2h2v1h2l1,2,6,2,1,2,6,2,1,2,6,2,1,2,4,1,1,2,4,1v1h2l1,2,6,2,1,2,6,2,1,2h2v1h2l1,2,6,2,1,2h2v1h2v1h2l1,2,6,2,1,2h2v1h2l1,2,6,2,1,2,6,2,1,2,4,1,1,2,6,2,1,2h2v1h2v1h2l1,2,6,2,1,2,19,10v1h-1v1l-4,1v1h-2l-1,2-6,2-1,2-6,2-1,2h-2v1h-2v1h-2v1h-2l-1,2h-2v1h-2v1h-2l-1,2-6,2-1,2-6,2-1,2-6,2-1,2-6,2-1,2-6,2-1,2h-2v1h-2v1h-2v1h-2c-30.407,19.124-63.613,35.844-94,55h-2v1h-2v1h-2v1h-2l-1,2-6,2-1,2-6,2-1,2-6,2-1,2-6,2-1,2-6,2-1,2-6,2-1,2h-2v1h-2v1h-2v1h-2l-1,2-6,2-1,2-6,2-1,2-4,1c-2.67,1.478-3.165,3.1-7,4V401c2.39-1.05,3.974-2.874,6-4l4-1,1-2,6-2,1-2,4-1,1-2,6-2,1-2,6-2,1-2,6-2,1-2h2v-1h2l1-2,6-2,1-2,6-2,1-2,6-2,1-2,4-1,1-2h2v-1h2v-1h2l1-2,6-2,1-2,4-1,1-2,6-2,1-2,6-2,1-2h2c2.381-1.346,3.89-3.159,7-4v-1l-3-1v-1h-2v-1h-2l-1-2-4-1-1-2-4-1-1-2-4-1-1-2-6-2-1-2h-2v-1h-2l-1-2h-2v-1h-2l-1-2-4-1-1-2h-2v-1h-2l-1-2-4-1-1-2-4-1-1-2-4-1-1-2-4-1-1-2-4-1-1-2h-2v-1h-2l-1-2-4-1-1-2-6-2-1-2-4-1-1-2-4-1-1-2-4-1-1-2h-2v-1h-2l-1-2c-1.141-.737-4.37-.863-5-2Z"> 

    </path>

</g>



</symbol>

</svg>